<svg width="161" height="39" viewBox="0 0 161 39" fill="none" xmlns="http://www.w3.org/2000/svg">
<path d="M7.97721 0H15.9544V7.8H7.97721V0Z" fill="black"/>
<path d="M7.97721 15.6H15.9544V23.4H7.97721V15.6Z" fill="black"/>
<path d="M0 7.8H7.97721V15.6H0V7.8Z" fill="black"/>
<path d="M0 15.6H7.97721V23.4H0V15.6Z" fill="black"/>
<path d="M0 23.4H7.97721V31.2H0V23.4Z" fill="black"/>
<path d="M32.0228 0H24.0456V7.8H32.0228V0Z" fill="black"/>
<path d="M32.0228 15.6H24.0456V23.4H32.0228V15.6Z" fill="black"/>
<path d="M40 7.8H32.0228V15.6H40V7.8Z" fill="black"/>
<path d="M40 15.6H32.0228V23.4H40V15.6Z" fill="black"/>
<path d="M40 23.4H32.0228V31.2H40V23.4Z" fill="black"/>
<path d="M15.9544 31.2H23.9316V39H15.9544V31.2Z" fill="black"/>
<path d="M53.0043 25V14.8182H59.527V16.3643H54.8487V19.1286H59.0795V20.6747H54.8487V25H53.0043ZM63.8983 25.1491C63.1525 25.1491 62.5062 24.9851 61.9593 24.657C61.4125 24.3288 60.9882 23.8698 60.6866 23.2798C60.3883 22.6899 60.2392 22.0005 60.2392 21.2116C60.2392 20.4228 60.3883 19.7318 60.6866 19.1385C60.9882 18.5452 61.4125 18.0845 61.9593 17.7564C62.5062 17.4283 63.1525 17.2642 63.8983 17.2642C64.644 17.2642 65.2903 17.4283 65.8372 17.7564C66.3841 18.0845 66.8066 18.5452 67.1049 19.1385C67.4065 19.7318 67.5574 20.4228 67.5574 21.2116C67.5574 22.0005 67.4065 22.6899 67.1049 23.2798C66.8066 23.8698 66.3841 24.3288 65.8372 24.657C65.2903 24.9851 64.644 25.1491 63.8983 25.1491ZM63.9082 23.7074C64.3126 23.7074 64.6506 23.5964 64.9224 23.3743C65.1942 23.1489 65.3964 22.8473 65.5289 22.4695C65.6648 22.0916 65.7328 21.6707 65.7328 21.2067C65.7328 20.7393 65.6648 20.3168 65.5289 19.9389C65.3964 19.5578 65.1942 19.2545 64.9224 19.0291C64.6506 18.8037 64.3126 18.6911 63.9082 18.6911C63.4939 18.6911 63.1492 18.8037 62.8741 19.0291C62.6023 19.2545 62.3985 19.5578 62.2626 19.9389C62.13 20.3168 62.0637 20.7393 62.0637 21.2067C62.0637 21.6707 62.13 22.0916 62.2626 22.4695C62.3985 22.8473 62.6023 23.1489 62.8741 23.3743C63.1492 23.5964 63.4939 23.7074 63.9082 23.7074ZM69.0849 25V17.3636H70.8299V18.6364H70.9094C71.0487 18.1955 71.2873 17.8558 71.6254 17.6172C71.9667 17.3752 72.3562 17.2543 72.7937 17.2543C72.8931 17.2543 73.0041 17.2592 73.1268 17.2692C73.2527 17.2758 73.3571 17.2874 73.44 17.304V18.9595C73.3638 18.933 73.2428 18.9098 73.0771 18.8899C72.9147 18.8667 72.7572 18.8551 72.6048 18.8551C72.2766 18.8551 71.9817 18.9264 71.7198 19.0689C71.4613 19.2081 71.2575 19.402 71.1083 19.6506C70.9592 19.8991 70.8846 20.1858 70.8846 20.5107V25H69.0849ZM74.6357 25V17.3636H76.3558V18.6612H76.4453C76.6044 18.2237 76.8679 17.8823 77.2358 17.6371C77.6037 17.3885 78.0429 17.2642 78.5533 17.2642C79.0703 17.2642 79.5062 17.3902 79.8608 17.642C80.2188 17.8906 80.4706 18.2304 80.6165 18.6612H80.696C80.8651 18.237 81.1501 17.8989 81.5511 17.647C81.9555 17.3918 82.4344 17.2642 82.9879 17.2642C83.6906 17.2642 84.264 17.4863 84.7081 17.9304C85.1522 18.3745 85.3743 19.0225 85.3743 19.8743V25H83.5696V20.1527C83.5696 19.6787 83.4437 19.3324 83.1918 19.1136C82.9399 18.8916 82.6316 18.7805 82.267 18.7805C81.8329 18.7805 81.4931 18.9164 81.2479 19.1882C81.0059 19.4567 80.8849 19.8063 80.8849 20.2372V25H79.12V20.0781C79.12 19.6837 79.0007 19.3688 78.7621 19.1335C78.5268 18.8982 78.2185 18.7805 77.8374 18.7805C77.5788 18.7805 77.3435 18.8468 77.1314 18.9794C76.9193 19.1087 76.7502 19.2926 76.6243 19.5312C76.4983 19.7666 76.4354 20.0417 76.4354 20.3565V25H74.6357ZM89.3975 25.1541C88.9136 25.1541 88.4778 25.0679 88.09 24.8956C87.7056 24.7199 87.4006 24.4614 87.1752 24.12C86.9532 23.7786 86.8422 23.3577 86.8422 22.8572C86.8422 22.4264 86.9217 22.0701 87.0808 21.7884C87.2399 21.5066 87.457 21.2812 87.7321 21.1122C88.0072 20.9432 88.3171 20.8156 88.6618 20.7294C89.0098 20.6399 89.3694 20.5753 89.7406 20.5355C90.188 20.4891 90.551 20.4477 90.8294 20.4112C91.1078 20.3714 91.31 20.3118 91.4359 20.2322C91.5652 20.1494 91.6298 20.0218 91.6298 19.8494V19.8196C91.6298 19.4451 91.5188 19.1551 91.2967 18.9496C91.0746 18.7441 90.7548 18.6413 90.3372 18.6413C89.8964 18.6413 89.5467 18.7375 89.2882 18.9297C89.033 19.1219 88.8606 19.349 88.7711 19.6108L87.0907 19.3722C87.2233 18.9081 87.4421 18.5204 87.747 18.2088C88.0519 17.8939 88.4248 17.6586 88.8656 17.5028C89.3064 17.3438 89.7936 17.2642 90.3272 17.2642C90.6951 17.2642 91.0614 17.3073 91.426 17.3935C91.7905 17.4796 92.1236 17.6222 92.4252 17.821C92.7269 18.0166 92.9688 18.2834 93.1511 18.6214C93.3367 18.9595 93.4295 19.3821 93.4295 19.8892V25H91.6994V23.951H91.6397C91.5304 24.1631 91.3762 24.362 91.1774 24.5476C90.9818 24.7299 90.7349 24.8774 90.4366 24.9901C90.1416 25.0994 89.7953 25.1541 89.3975 25.1541ZM89.8649 23.8317C90.2261 23.8317 90.5394 23.7604 90.8045 23.6179C91.0697 23.4721 91.2735 23.2798 91.416 23.0412C91.5618 22.8026 91.6348 22.5424 91.6348 22.2607V21.3608C91.5784 21.4072 91.4823 21.4503 91.3464 21.4901C91.2138 21.5298 91.0647 21.5646 90.899 21.5945C90.7333 21.6243 90.5692 21.6508 90.4068 21.674C90.2444 21.6972 90.1035 21.7171 89.9842 21.7337C89.7157 21.7701 89.4754 21.8298 89.2633 21.9126C89.0512 21.9955 88.8838 22.1115 88.7612 22.2607C88.6386 22.4065 88.5772 22.5954 88.5772 22.8274C88.5772 23.1589 88.6982 23.4091 88.9402 23.5781C89.1821 23.7472 89.4904 23.8317 89.8649 23.8317ZM99.0524 17.3636V18.7557H94.6625V17.3636H99.0524ZM95.7463 15.5341H97.546V22.7031C97.546 22.9451 97.5824 23.1307 97.6554 23.2599C97.7316 23.3859 97.831 23.4721 97.9537 23.5185C98.0763 23.5649 98.2122 23.5881 98.3613 23.5881C98.474 23.5881 98.5768 23.5798 98.6696 23.5632C98.7657 23.5466 98.8386 23.5317 98.8883 23.5185L99.1916 24.9254C99.0955 24.9586 98.9579 24.995 98.7789 25.0348C98.6033 25.0746 98.3878 25.0978 98.1326 25.1044C97.6819 25.1177 97.2759 25.0497 96.9146 24.9006C96.5533 24.7481 96.2666 24.5128 96.0545 24.1946C95.8457 23.8764 95.743 23.4787 95.7463 23.0014V15.5341ZM100.558 25V17.3636H102.357V25H100.558ZM101.462 16.2798C101.177 16.2798 100.932 16.1854 100.727 15.9964C100.521 15.8042 100.418 15.5739 100.418 15.3054C100.418 15.0336 100.521 14.8033 100.727 14.6143C100.932 14.4221 101.177 14.326 101.462 14.326C101.751 14.326 101.996 14.4221 102.198 14.6143C102.404 14.8033 102.506 15.0336 102.506 15.3054C102.506 15.5739 102.404 15.8042 102.198 15.9964C101.996 16.1854 101.751 16.2798 101.462 16.2798ZM107.539 25.1491C106.793 25.1491 106.147 24.9851 105.6 24.657C105.053 24.3288 104.629 23.8698 104.327 23.2798C104.029 22.6899 103.88 22.0005 103.88 21.2116C103.88 20.4228 104.029 19.7318 104.327 19.1385C104.629 18.5452 105.053 18.0845 105.6 17.7564C106.147 17.4283 106.793 17.2642 107.539 17.2642C108.285 17.2642 108.931 17.4283 109.478 17.7564C110.025 18.0845 110.447 18.5452 110.746 19.1385C111.047 19.7318 111.198 20.4228 111.198 21.2116C111.198 22.0005 111.047 22.6899 110.746 23.2798C110.447 23.8698 110.025 24.3288 109.478 24.657C108.931 24.9851 108.285 25.1491 107.539 25.1491ZM107.549 23.7074C107.953 23.7074 108.291 23.5964 108.563 23.3743C108.835 23.1489 109.037 22.8473 109.17 22.4695C109.305 22.0916 109.373 21.6707 109.373 21.2067C109.373 20.7393 109.305 20.3168 109.17 19.9389C109.037 19.5578 108.835 19.2545 108.563 19.0291C108.291 18.8037 107.953 18.6911 107.549 18.6911C107.135 18.6911 106.79 18.8037 106.515 19.0291C106.243 19.2545 106.039 19.5578 105.903 19.9389C105.771 20.3168 105.704 20.7393 105.704 21.2067C105.704 21.6707 105.771 22.0916 105.903 22.4695C106.039 22.8473 106.243 23.1489 106.515 23.3743C106.79 23.5964 107.135 23.7074 107.549 23.7074ZM114.525 20.5256V25H112.725V17.3636H114.446V18.6612H114.535C114.711 18.2337 114.991 17.8939 115.375 17.642C115.763 17.3902 116.242 17.2642 116.812 17.2642C117.339 17.2642 117.798 17.3769 118.189 17.6023C118.584 17.8277 118.889 18.1541 119.104 18.5817C119.323 19.0092 119.431 19.5279 119.427 20.1378V25H117.627V20.4162C117.627 19.9058 117.495 19.5064 117.23 19.218C116.968 18.9297 116.605 18.7855 116.141 18.7855C115.826 18.7855 115.546 18.8551 115.301 18.9943C115.059 19.1302 114.868 19.3274 114.729 19.5859C114.593 19.8445 114.525 20.1577 114.525 20.5256ZM125.885 20.0185V21.5H121.301V20.0185H125.885ZM131.591 17.3636V18.7557H127.202V17.3636H131.591ZM128.285 15.5341H130.085V22.7031C130.085 22.9451 130.122 23.1307 130.194 23.2599C130.271 23.3859 130.37 23.4721 130.493 23.5185C130.615 23.5649 130.751 23.5881 130.9 23.5881C131.013 23.5881 131.116 23.5798 131.209 23.5632C131.305 23.5466 131.378 23.5317 131.427 23.5185L131.731 24.9254C131.635 24.9586 131.497 24.995 131.318 25.0348C131.142 25.0746 130.927 25.0978 130.672 25.1044C130.221 25.1177 129.815 25.0497 129.454 24.9006C129.092 24.7481 128.806 24.5128 128.594 24.1946C128.385 23.8764 128.282 23.4787 128.285 23.0014V15.5341ZM136.346 25.1491C135.6 25.1491 134.953 24.9851 134.407 24.657C133.86 24.3288 133.435 23.8698 133.134 23.2798C132.836 22.6899 132.686 22.0005 132.686 21.2116C132.686 20.4228 132.836 19.7318 133.134 19.1385C133.435 18.5452 133.86 18.0845 134.407 17.7564C134.953 17.4283 135.6 17.2642 136.346 17.2642C137.091 17.2642 137.738 17.4283 138.284 17.7564C138.831 18.0845 139.254 18.5452 139.552 19.1385C139.854 19.7318 140.005 20.4228 140.005 21.2116C140.005 22.0005 139.854 22.6899 139.552 23.2798C139.254 23.8698 138.831 24.3288 138.284 24.657C137.738 24.9851 137.091 25.1491 136.346 25.1491ZM136.355 23.7074C136.76 23.7074 137.098 23.5964 137.37 23.3743C137.641 23.1489 137.844 22.8473 137.976 22.4695C138.112 22.0916 138.18 21.6707 138.18 21.2067C138.18 20.7393 138.112 20.3168 137.976 19.9389C137.844 19.5578 137.641 19.2545 137.37 19.0291C137.098 18.8037 136.76 18.6911 136.355 18.6911C135.941 18.6911 135.596 18.8037 135.321 19.0291C135.05 19.2545 134.846 19.5578 134.71 19.9389C134.577 20.3168 134.511 20.7393 134.511 21.2067C134.511 21.6707 134.577 22.0916 134.71 22.4695C134.846 22.8473 135.05 23.1489 135.321 23.3743C135.596 23.5964 135.941 23.7074 136.355 23.7074ZM144.863 25.1491C144.117 25.1491 143.471 24.9851 142.924 24.657C142.377 24.3288 141.953 23.8698 141.651 23.2798C141.353 22.6899 141.204 22.0005 141.204 21.2116C141.204 20.4228 141.353 19.7318 141.651 19.1385C141.953 18.5452 142.377 18.0845 142.924 17.7564C143.471 17.4283 144.117 17.2642 144.863 17.2642C145.609 17.2642 146.255 17.4283 146.802 17.7564C147.349 18.0845 147.771 18.5452 148.07 19.1385C148.371 19.7318 148.522 20.4228 148.522 21.2116C148.522 22.0005 148.371 22.6899 148.07 23.2798C147.771 23.8698 147.349 24.3288 146.802 24.657C146.255 24.9851 145.609 25.1491 144.863 25.1491ZM144.873 23.7074C145.277 23.7074 145.615 23.5964 145.887 23.3743C146.159 23.1489 146.361 22.8473 146.494 22.4695C146.63 22.0916 146.698 21.6707 146.698 21.2067C146.698 20.7393 146.63 20.3168 146.494 19.9389C146.361 19.5578 146.159 19.2545 145.887 19.0291C145.615 18.8037 145.277 18.6911 144.873 18.6911C144.459 18.6911 144.114 18.8037 143.839 19.0291C143.567 19.2545 143.363 19.5578 143.227 19.9389C143.095 20.3168 143.029 20.7393 143.029 21.2067C143.029 21.6707 143.095 22.0916 143.227 22.4695C143.363 22.8473 143.567 23.1489 143.839 23.3743C144.114 23.5964 144.459 23.7074 144.873 23.7074ZM151.849 14.8182V25H150.05V14.8182H151.849ZM159.736 19.3821L158.095 19.5611C158.049 19.3954 157.967 19.2396 157.851 19.0938C157.739 18.9479 157.586 18.8303 157.394 18.7408C157.202 18.6513 156.966 18.6065 156.688 18.6065C156.314 18.6065 155.999 18.6877 155.743 18.8501C155.492 19.0125 155.367 19.223 155.371 19.4815C155.367 19.7036 155.448 19.8842 155.614 20.0234C155.783 20.1626 156.062 20.277 156.449 20.3665L157.752 20.6449C158.474 20.8007 159.011 21.0476 159.363 21.3857C159.717 21.7237 159.896 22.1662 159.9 22.7131C159.896 23.1937 159.756 23.6179 159.477 23.9858C159.202 24.3504 158.819 24.6354 158.329 24.8409C157.838 25.0464 157.275 25.1491 156.638 25.1491C155.704 25.1491 154.951 24.9536 154.381 24.5625C153.811 24.1681 153.471 23.6196 153.362 22.9169L155.117 22.7479C155.197 23.0926 155.366 23.3527 155.624 23.5284C155.883 23.7041 156.219 23.7919 156.633 23.7919C157.061 23.7919 157.404 23.7041 157.662 23.5284C157.924 23.3527 158.055 23.1357 158.055 22.8771C158.055 22.6584 157.971 22.4777 157.802 22.3352C157.636 22.1927 157.377 22.0833 157.026 22.0071L155.724 21.7337C154.991 21.5812 154.449 21.3243 154.098 20.9631C153.747 20.5985 153.573 20.1378 153.576 19.581C153.573 19.1103 153.7 18.7027 153.959 18.358C154.22 18.0099 154.583 17.7415 155.047 17.5526C155.515 17.3603 156.053 17.2642 156.663 17.2642C157.558 17.2642 158.262 17.4548 158.776 17.8359C159.293 18.2171 159.613 18.7325 159.736 19.3821Z" fill="black"/>
</svg>